<svg width="921" height="103" viewBox="0 0 921 103" fill="none" xmlns="http://www.w3.org/2000/svg">
<g clip-path="url(#clip0_97_2)">
<path d="M56.8605 2.36972V38.1497H19.5305V2.36972H0.230469V92.4497H19.5305V54.7497H56.8605V92.4597H76.1605V2.36972H56.8605ZM199.34 75.7097V2.36972H180.02V75.9797C180.02 86.6697 185.83 92.4597 196.5 92.4597H240.39V75.7197H199.34V75.7097ZM240.38 2.36972V18.9697H267.01V92.4497H286.31V18.9697H312.95V2.36972H240.38ZM350.69 70.4397C349.26 75.9797 344.51 78.7997 337.31 78.7997C328.3 78.7997 322.51 73.1397 321.23 63.9997H367.8C367.94 62.5897 368.07 60.6597 368.07 58.2097C368.07 43.4097 358.94 26.5597 336.03 26.5597C314.01 26.5597 303.99 43.4097 303.99 59.8897C303.99 76.2197 315.32 93.4697 337.32 93.4697C353.28 93.4697 365.63 84.4597 368.2 70.4397H350.69ZM336.02 39.6897C344.63 39.6897 349.66 45.4797 350.17 52.6997H321.47C323.02 43.6697 327.9 39.6897 336.02 39.6897ZM425.59 68.2597C424.3 74.0497 419.03 78.0297 412.47 78.0297C402.7 78.0297 396.91 70.5597 396.91 60.0197C396.91 49.4797 402.56 41.8797 412.22 41.8797C418.78 41.8797 424.3 46.1197 425.34 51.9097H443.35C442.19 36.8597 428.68 26.5697 411.7 26.5697C391.61 26.5697 378.25 41.0997 378.25 60.0197C378.25 78.9297 391.62 93.4697 411.7 93.4697C428.55 93.4697 441.94 82.6597 443.87 68.2597H425.59ZM491.73 26.5697C482.72 26.5697 475.65 30.2997 471.91 36.5997V2.36972H454.02V92.4497H471.91V56.9297C471.91 48.5697 477.45 42.5297 485.29 42.5297C492.76 42.5297 497.91 48.1897 497.91 56.0397V92.4597H515.8V52.0597C515.8 37.1097 506.28 26.5697 491.73 26.5697ZM88.2705 46.4597C88.2705 16.1497 107.86 0.469727 130.2 0.469727C151.23 0.469727 166.64 13.3097 168.91 32.7097H150.15C148.96 23.3297 140.71 17.0397 130.2 17.0397C116.7 17.0397 106.31 27.1897 106.31 46.4597C106.31 65.7297 116.7 75.7497 130.2 75.7497C140.95 75.7497 149.19 69.4597 150.63 60.2097H168.55C167 79.4797 151.59 92.4497 130.2 92.4497C107.5 92.4497 88.2705 76.7797 88.2705 46.4597ZM555.521 92.4497H552.021V0.479725H555.521V92.4497ZM591.73 27.1097H595.201C595.721 32.5297 599.3 36.0397 605.41 36.0397C610.91 36.0397 614.951 34.0297 614.951 29.1697C614.951 19.2097 593.021 24.2597 593.021 11.6697C593.021 6.03972 598 2.26973 605.26 2.26973C612.31 2.26973 617.29 6.39973 617.91 12.7497H614.44C613.97 8.35973 610.5 5.46973 605.26 5.46973C599.82 5.46973 596.6 7.83973 596.6 11.6597C596.6 21.4197 618.641 15.7897 618.641 29.1597C618.641 35.6697 612.88 39.2297 605.42 39.2297C597.33 39.2497 592.25 34.4397 591.73 27.1097ZM645.711 38.8297H642.44V33.4097C641.09 37.3297 637.77 39.2397 633.63 39.2397C627.72 39.2397 623.88 35.0597 623.88 28.5997V12.7997H627.151V28.1997C627.151 33.0497 629.9 36.2497 634.1 36.2497C638.97 36.2497 642.451 32.3297 642.451 26.7997V12.8097H645.72V38.8297H645.711ZM665.51 12.3997C661.67 12.3997 658.05 14.4597 656.44 17.5097V12.8197H653.18V49.3697H656.44V34.1297C658.05 37.1697 661.68 39.2497 665.51 39.2497C673.81 39.2497 678.22 33.2497 678.22 25.8197C678.22 18.3897 673.81 12.3997 665.51 12.3997ZM665.41 36.2497C659.76 36.2497 656.081 32.1197 656.081 25.8197C656.081 19.5197 659.76 15.3897 665.41 15.3897C671.06 15.3897 674.74 19.5197 674.74 25.8197C674.74 32.1197 671.06 36.2497 665.41 36.2497ZM703.01 30.6197C702.13 34.1797 699.23 36.2497 694.61 36.2497C689.37 36.2497 685.32 31.9597 685.11 26.1297H706.01C706.05 25.7597 706.11 24.8797 706.11 24.4197C706.11 17.2397 701.291 12.3897 694.141 12.3897C686.771 12.3897 681.8 17.6997 681.8 25.5997C681.8 33.3497 687.19 39.2397 694.61 39.2397C701.09 39.2397 705.59 35.8297 706.43 30.6097H703.01V30.6197ZM694.141 15.3897C699.121 15.3897 702.33 18.3297 702.69 23.1397H685.32C686.16 18.2797 689.371 15.3897 694.141 15.3897ZM715.81 12.8097H724.68V15.7997H715.04V38.8297H711.771V16.8397C711.771 14.2597 713.22 12.8097 715.81 12.8097ZM725.82 25.8197C725.82 19.0097 730.02 12.3997 738.32 12.3997C743.87 12.3997 749.05 15.5997 749.93 21.3297H746.711C746.191 17.9197 742.61 15.3897 738.31 15.3897C732.09 15.3897 729.24 20.1897 729.24 25.8197C729.24 31.4497 732.14 36.2497 738.31 36.2497C742.61 36.2497 745.671 34.1797 746.711 30.7797H749.82C748.89 35.9897 744.89 39.2497 738.31 39.2497C730.02 39.2497 725.82 32.6397 725.82 25.8197ZM755.17 2.27972H758.44V18.2297C759.79 14.3097 763.11 12.3997 767.25 12.3997C773.16 12.3997 777 16.5797 777 23.0397V38.8397H773.73V23.4497C773.73 18.5997 770.981 15.3997 766.781 15.3997C761.911 15.3997 758.43 19.3197 758.43 24.8497V38.8397H755.16V2.27972H755.17ZM793.701 12.3997C788.261 12.3997 783.28 15.9497 782.76 20.9597H786.031C786.241 17.9197 789.661 15.3897 793.701 15.3897C798.581 15.3897 801.37 18.1297 801.37 22.0497C801.37 22.8197 800.9 23.2897 799.76 23.2897H793.44C786.96 23.2897 782.81 26.4397 782.81 31.3997C782.81 36.1997 786.38 39.2597 791.99 39.2597C796.18 39.2597 799.81 37.2397 801.37 34.0897V38.8397H804.641V22.0497C804.641 16.2697 800.541 12.3997 793.701 12.3997ZM801.37 26.7997C801.37 32.7897 798 36.2497 792.24 36.2497C788.61 36.2497 786.29 34.3397 786.29 31.3897C786.29 28.0897 789.08 26.0197 793.44 26.0197H801.37V26.7997ZM815.68 12.8097H824.55V15.7997H814.91V38.8297H811.641V16.8397C811.641 14.2597 813.09 12.8097 815.68 12.8097ZM847.41 12.8197V16.9897C845.76 14.3097 841.971 12.3997 838.341 12.3997C830.051 12.3997 825.641 18.3897 825.641 25.8197C825.641 33.2497 830.051 39.2497 838.341 39.2497C842.491 39.2497 846.23 37.4897 847.41 34.9597V46.3697H829V49.3697H846.63C849.22 49.3697 850.67 47.9197 850.67 45.3397V12.8197H847.41ZM838.451 36.2497C832.801 36.2497 829.12 32.1197 829.12 25.8197C829.12 19.5197 832.801 15.3897 838.451 15.3897C844.101 15.3897 847.781 19.5197 847.781 25.8197C847.781 32.1197 844.101 36.2497 838.451 36.2497ZM857.79 2.27972H861.73V7.54972H857.79V2.27972ZM858.151 12.8097H861.42V38.8297H858.151V12.8097ZM868.891 12.8097H872.16V18.2297C873.51 14.3097 876.83 12.3997 880.97 12.3997C886.88 12.3997 890.72 16.5797 890.72 23.0397V38.8397H887.451V23.4497C887.451 18.5997 884.7 15.3997 880.5 15.3997C875.63 15.3997 872.151 19.3197 872.151 24.8497V38.8397H868.88V12.8097H868.891ZM917.68 12.8197V16.9897C916.02 14.3097 912.24 12.3997 908.61 12.3997C900.31 12.3997 895.91 18.3897 895.91 25.8197C895.91 33.2497 900.31 39.2497 908.61 39.2497C912.76 39.2497 916.49 37.4897 917.68 34.9597V46.3697H899.271V49.3697H916.901C919.491 49.3697 920.94 47.9197 920.94 45.3397V12.8197H917.68ZM908.701 36.2497C903.051 36.2497 899.37 32.1197 899.37 25.8197C899.37 19.5197 903.051 15.3897 908.701 15.3897C914.361 15.3897 918.031 19.5197 918.031 25.8197C918.031 32.1197 914.361 36.2497 908.701 36.2497ZM607.98 56.0997H594.651V92.2397H598.13V77.0597H607.98C614.98 77.0597 619.331 72.8297 619.331 66.5897C619.331 60.3497 614.98 56.0997 607.98 56.0997ZM608.081 73.8697H598.13V59.3097H608.081C613.631 59.3097 615.651 62.7697 615.651 66.5897C615.651 70.3997 613.631 73.8697 608.081 73.8697ZM627.68 66.2197H636.55V69.2097H626.91V92.2397H623.641V70.2497C623.641 67.6697 625.09 66.2197 627.68 66.2197ZM650.86 65.8097C643.18 65.8097 637.69 71.3797 637.69 79.2297C637.69 87.0697 643.18 92.6597 650.86 92.6597C658.53 92.6597 664.031 87.0797 664.031 79.2297C664.031 71.3897 658.53 65.8097 650.86 65.8097ZM650.86 89.6597C645.05 89.6597 641.11 85.3197 641.11 79.2297C641.11 73.1397 645.04 68.7997 650.86 68.7997C656.66 68.7997 660.61 73.1397 660.61 79.2297C660.61 85.3197 656.67 89.6597 650.86 89.6597ZM689.391 66.2297V70.3997C687.731 67.7197 683.95 65.8097 680.32 65.8097C672.02 65.8097 667.61 71.7997 667.61 79.2297C667.61 86.6597 672.02 92.6597 680.32 92.6597C684.46 92.6597 688.201 90.8997 689.391 88.3697V99.7797H670.98V102.78H688.6C691.2 102.78 692.641 101.33 692.641 98.7497V66.2297H689.391ZM680.42 89.6597C674.77 89.6597 671.091 85.5297 671.091 79.2297C671.091 72.9297 674.77 68.7997 680.42 68.7997C686.07 68.7997 689.75 72.9297 689.75 79.2297C689.75 85.5297 686.07 89.6597 680.42 89.6597ZM704.06 66.2197H712.93V69.2097H703.29V92.2397H700.021V70.2497C700.021 67.6697 701.47 66.2197 704.06 66.2197ZM735.271 84.0397C734.391 87.5997 731.49 89.6697 726.87 89.6697C721.63 89.6697 717.59 85.3797 717.38 79.5497H738.271C738.321 79.1797 738.38 78.2997 738.38 77.8397C738.38 70.6597 733.561 65.8097 726.401 65.8097C719.041 65.8097 714.07 71.1197 714.07 79.0197C714.07 86.7697 719.46 92.6597 726.87 92.6597C733.36 92.6597 737.87 89.2497 738.69 84.0297H735.271V84.0397ZM726.41 68.7997C731.39 68.7997 734.6 71.7397 734.97 76.5497H717.6C718.42 71.6897 721.64 68.7997 726.41 68.7997ZM742.021 84.0297H745.29C745.65 87.6997 748.09 89.6597 752.24 89.6597C755.87 89.6597 758.26 87.5897 758.26 85.2197C758.26 76.6997 742.651 84.2397 742.651 72.9297C742.651 68.5897 746.28 65.8097 751.88 65.8097C757.43 65.8097 761.211 68.9097 761.521 73.6097H758.25C757.83 69.9397 754.15 68.8097 751.66 68.8097C748.29 68.8097 746.06 70.4597 746.06 72.9397C746.06 80.4797 761.67 73.2497 761.67 85.2297C761.67 89.7697 757.88 92.6697 752.23 92.6697C746.32 92.6597 742.441 89.3997 742.021 84.0297ZM765.151 84.0297H768.42C768.78 87.6997 771.22 89.6597 775.37 89.6597C779 89.6597 781.391 87.5897 781.391 85.2197C781.391 76.6997 765.781 84.2397 765.781 72.9297C765.781 68.5897 769.41 65.8097 775.01 65.8097C780.56 65.8097 784.341 68.9097 784.651 73.6097H781.38C780.96 69.9397 777.28 68.8097 774.79 68.8097C771.42 68.8097 769.19 70.4597 769.19 72.9397C769.19 80.4797 784.8 73.2497 784.8 85.2297C784.8 89.7697 781.01 92.6697 775.36 92.6697C769.45 92.6597 765.561 89.3997 765.151 84.0297ZM787.91 58.0097H796.43V59.7397H793.091V68.8897H791.24V59.7397H787.901V58.0097H787.91ZM798.281 58.0097H800.56L803.901 66.1797L807.24 58.0097H809.521V68.8897H807.711V61.4297L804.68 68.8897H803.07L800.081 61.4297V68.8897H798.271V58.0097H798.281Z" fill="#0F5FDC"/>
</g>
<defs>
<clipPath id="clip0_97_2">
<rect width="921" height="103" fill="white"/>
</clipPath>
</defs>
</svg>
